<svg width="152" height="27" fill="none" xmlns="http://www.w3.org/2000/svg"><path d="M.29 26V.4h8.96c3.1 0 5.46.6 7.07 1.8 1.6 1.18 2.4 2.92 2.4 5.22 0 1.25-.32 2.36-.96 3.32a5.6 5.6 0 0 1-2.7 2.1c1.32.32 2.35.98 3.1 1.98.76 1 1.14 2.22 1.14 3.66 0 2.46-.78 4.32-2.35 5.59-1.57 1.26-3.8 1.9-6.72 1.93H.3Zm5.27-11.14v6.9h4.52c1.24 0 2.2-.29 2.9-.88.7-.6 1.05-1.41 1.05-2.46 0-2.34-1.21-3.53-3.64-3.56H5.56Zm0-3.73h3.9c2.66-.05 4-1.1 4-3.18 0-1.16-.35-2-1.03-2.5-.67-.51-1.73-.77-3.18-.77h-3.7v6.45Zm36.72 3.78H32.15v6.85h11.88V26H26.88V.4H44v4.28H32.15v6.1h10.13v4.13Zm22.9 5.82h-9.25L54.17 26h-5.6L58.09.4h4.89L72.56 26h-5.6l-1.78-5.27Zm-7.83-4.27h6.4l-3.21-9.59-3.19 9.59ZM97.6.4v16.85c0 2.8-.87 5.02-2.63 6.65-1.75 1.63-4.14 2.44-7.17 2.44-3 0-5.37-.79-7.12-2.37-1.76-1.58-2.66-3.76-2.7-6.52V.4h5.28v16.9c0 1.67.4 2.9 1.2 3.67.8.76 1.92 1.15 3.34 1.15 2.96 0 4.47-1.56 4.51-4.68V.4h5.3Zm27.2 4.27h-7.84V26h-5.28V4.68h-7.73V.4h20.84v4.27Zm15.72 7.26L145.85.4h5.77l-8.4 16.3V26h-5.37v-9.28L129.45.4h5.78l5.3 11.53Z" fill="#F13C6E"/></svg>