<svg width="189" height="100" fill="none" xmlns="http://www.w3.org/2000/svg"><path d="M39.85 73.98c-7.32 0-13.01 5.7-13.01 13.01 0 7.32 5.69 13.01 13 13.01 7.33 0 13.02-5.7 13.02-13 0-7.33-5.7-13.02-13.01-13.02ZM117.1 0h-6.5v15.85H135L117.1 0ZM.8 89.43h16.27s.81-24.39 24.4-24.39c17.48 0 20.33 24.4 20.33 24.4h40.66V0H0l.81 89.43Zm153.7-15.45c-7.31 0-13 5.7-13 13.01 0 7.32 5.69 13.01 13 13.01 7.33 0 13.02-5.7 13.02-13 0-7.33-6.1-13.02-13.01-13.02Zm-15.44-53.65H110.6v69.1H135s-3.25-20.32 20.33-20.32c17.9 0 17.48 20.32 17.48 20.32h15.05l.81-30.49-49.6-38.61ZM135 73.17h-16.27v-8.13H135v8.13Zm-1.63-14.63-16.26-9.76V26.02h16.26l42.3 32.52h-42.3Z" fill="#fff" fill-opacity=".4"/></svg>