<svg width="80" height="80" fill="none" xmlns="http://www.w3.org/2000/svg"><g clip-path="url(#a)"><path d="M57.22 25.37 46.69 35.91l4.08 4.07L61.3 29.45l-4.08-4.08ZM35.9 46.7 25.39 57.25l4.07 4.08L40 50.78l-4.08-4.07ZM50.52 18.7 39.98 29.25l4.08 4.08L54.6 22.78l-4.08-4.07ZM29.24 40.01 18.7 50.54l4.08 4.08L33.31 44.1 29.24 40ZM22.76 25.37l-4.08 4.08L29.2 39.98l4.08-4.07-10.53-10.54ZM29.45 18.7l-4.07 4.08L35.9 33.3l4.08-4.08L29.45 18.7ZM50.76 39.98l-4.08 4.08 10.53 10.53 4.08-4.08-10.53-10.53ZM44.1 46.68 40 50.76 50.55 61.3l4.08-4.08-10.54-10.54Z" fill="#F13C6E"/><path d="m54.6 65.4-4.06-4.07L40 71.87 29.46 61.33l-4.07 4.06L40 80l14.6-14.6ZM18.67 29.46l-4.06-4.07L0 40l14.6 14.6 4.07-4.06L8.13 40l10.54-10.54ZM65.4 25.4l-4.07 4.06L71.87 40 61.33 50.54l4.06 4.07L80 40 65.4 25.4ZM50.54 18.67l4.07-4.06L40 0 25.4 14.6l4.06 4.07L40 8.13l10.54 10.54Z" fill="#EFEFEF"/></g><defs><clipPath id="a"><path fill="#fff" d="M0 0h80v80H0z"/></clipPath></defs></svg>